<?xml version="1.0" standalone="no"?>
<!DOCTYPE svg PUBLIC "-//W3C//DTD SVG 20010904//EN"
 "http://www.w3.org/TR/2001/REC-SVG-20010904/DTD/svg10.dtd">
<svg version="1.0" xmlns="http://www.w3.org/2000/svg"
 width="512.000000pt" height="512.000000pt" viewBox="0 0 512.000000 512.000000"
 preserveAspectRatio="xMidYMid meet">
<metadata>
Created by potrace 1.14, written by Peter Selinger 2001-2017
</metadata>
<g transform="translate(0.000000,512.000000) scale(0.100000,-0.100000)"
fill="#000000" stroke="none">
<path d="M2418 5065 c-2 -1 -32 -5 -68 -9 -274 -26 -548 -119 -768 -260 -326
-209 -561 -545 -655 -936 -44 -181 -52 -253 -52 -470 0 -265 28 -455 110 -759
104 -385 329 -907 565 -1311 14 -25 29 -52 33 -60 10 -23 165 -274 232 -375
262 -398 576 -797 649 -825 44 -17 88 -3 127 38 184 200 500 614 725 949 355
529 615 1039 765 1498 61 187 118 431 134 580 3 28 8 68 10 90 6 51 5 344 0
410 -5 53 -21 164 -30 203 -3 12 -7 30 -9 40 -93 403 -304 713 -636 930 -149
98 -392 197 -555 227 -16 3 -68 12 -115 21 -72 14 -450 29 -462 19z m417 -270
c586 -99 993 -465 1116 -1004 17 -74 19 -84 24 -131 3 -25 7 -58 10 -75 5 -36
6 -282 1 -345 -8 -105 -46 -324 -71 -410 -2 -8 -13 -46 -24 -85 -59 -218 -215
-600 -338 -834 -97 -183 -139 -257 -231 -411 -206 -344 -463 -706 -717 -1010
-48 -58 -91 -105 -94 -105 -8 0 -68 68 -107 120 -16 22 -32 42 -35 45 -17 15
-197 268 -298 420 -481 724 -801 1438 -905 2020 -14 80 -19 114 -32 235 -6 56
-6 316 0 355 2 14 7 48 11 75 66 501 376 894 835 1059 99 36 253 73 338 82 37
3 69 8 71 10 6 6 404 -3 446 -11z"/>
<path d="M2425 4065 c-281 -61 -489 -277 -540 -560 -3 -16 -5 -61 -6 -100 -1
-195 64 -351 206 -491 128 -128 288 -196 460 -197 97 -1 155 7 229 33 233 80
396 261 451 500 82 362 -158 735 -526 816 -55 12 -217 12 -274 -1z m210 -251
c115 -15 247 -110 301 -216 108 -213 31 -468 -175 -576 -237 -125 -534 -5
-607 243 -75 259 88 520 346 552 25 3 47 7 49 9 3 2 12 2 20 0 9 -3 39 -8 66
-12z"/>
</g>
</svg>
